<svg xmlns="http://www.w3.org/2000/svg" viewBox="0 0 40 40"><defs><style>.a{fill:#939393;}</style></defs><title>unread_statementArtboard 49</title><rect class="a" x="11" y="7" width="5" height="1"/><rect class="a" x="11" y="11" width="10" height="1"/><rect class="a" x="11" y="15" width="18" height="1"/><rect class="a" x="11" y="18" width="18" height="1"/><path class="a" d="M7,18,5,19V34.69C5.21,35.52,6.38,36,6.38,36H33.62s1.51-.42,1.38-1.34V19l-2-1V16l3,1.79V34.66A2.52,2.52,0,0,1,33.45,37H6.55A2.52,2.52,0,0,1,4,34.66V17.79L7,16Z"/><path class="a" d="M20,31.32c-1.94,0-4.79-2.89-5.11-3.22L6,19.18V3H34V19.18l-9,9C24.73,28.46,21.94,31.32,20,31.32ZM7,18.51l8.66,8.58C16.75,28.21,18.89,30,20,30s3.2-1.73,4.26-2.82L33,18.5V4H7Z"/></svg>