<svg xmlns="http://www.w3.org/2000/svg" width="48" height="48" viewBox="0 0 48 48">
  <path class="themed defaultFill-BrandTertiary" d="M43.52 27.27a9.08 9.08 0 0 0-1.81-3.38 10.27 10.27 0 0 0-7.28-2.79c-8.13 0-10.2 8.12-10.46 10.1a18.93 18.93 0 0 0 .2 6.2 9.37 9.37 0 0 0 1.88 3.51 8.18 8.18 0 0 0 3.16 2.16 11.6 11.6 0 0 0 4.31.73 10.35 10.35 0 0 0 1.2-.08 9.56 9.56 0 0 0 1.23-.2c.4-.1.78-.2 1.15-.33a4.46 4.46 0 0 0 1-.47l-.48-1.88a6.66 6.66 0 0 1-.87.32 6.48 6.48 0 0 1-1 .25l-1.07.18a8 8 0 0 1-1.08 0 9.08 9.08 0 0 1-3.33-.58 5.56 5.56 0 0 1-2.41-1.73 7.55 7.55 0 0 1-1.46-2.78 12.28 12.28 0 0 1-.35-3.91 14.69 14.69 0 0 1 .7-3.86 9.14 9.14 0 0 1 1.68-3.06 7.89 7.89 0 0 1 2.58-2 7.77 7.77 0 0 1 3.39-.73 8.34 8.34 0 0 1 3.43.63 6.18 6.18 0 0 1 2.36 1.78 7 7 0 0 1 1.3 2.78 12.49 12.49 0 0 1 .3 3.66 9 9 0 0 1-.25 1.88 6.34 6.34 0 0 1-.54 1.48 3.24 3.24 0 0 1-.83 1 1.73 1.73 0 0 1-1.08.38 1.88 1.88 0 0 1-.52-.08.86.86 0 0 1-.45-.3 1.29 1.29 0 0 1-.28-.6 3.23 3.23 0 0 1 0-1l.63-7.07-.77-.48a4 4 0 0 0-.8-.42 4.68 4.68 0 0 0-1-.3 5.8 5.8 0 0 0-1.25-.1 4.39 4.39 0 0 0-2 .47A5.31 5.31 0 0 0 30.94 28a7.68 7.68 0 0 0-1.26 2.16A9.79 9.79 0 0 0 29 33a8.35 8.35 0 0 0 .07 2.26 5.07 5.07 0 0 0 .66 1.74 3.26 3.26 0 0 0 1.18 1.1 3.4 3.4 0 0 0 1.61.4 4 4 0 0 0 1.78-.43 3.79 3.79 0 0 0 1.42-1.27 2.93 2.93 0 0 0 1.16 1.3 3.55 3.55 0 0 0 1.83.45 5.24 5.24 0 0 0 1.68-.27 4 4 0 0 0 1.32-.76 5.21 5.21 0 0 0 1-1.13 7 7 0 0 0 .7-1.4 11.08 11.08 0 0 0 .42-1.58 13.21 13.21 0 0 0 .17-1.67 14 14 0 0 0-.48-4.47zm-8.15 7a5.06 5.06 0 0 1-.47 1 3.41 3.41 0 0 1-.53.62 2.19 2.19 0 0 1-.53.33 1.72 1.72 0 0 1-.47.1 1.42 1.42 0 0 1-1.37-.85 4.75 4.75 0 0 1-.26-2.47 8.25 8.25 0 0 1 1-3.51 2.47 2.47 0 0 1 2.18-1.21 4.75 4.75 0 0 1 .53.05 3.22 3.22 0 0 1 .47.13zM44 5.15V4H4v1.15l19.93 11.48zm0 17.54V7.88L23.93 19.36 4 7.88V31h18a14 14 0 0 1 4.24-9.15c2.45-2.41 11.76-5.19 17.76.84z" fill="#6b2b5e" />
</svg>