<svg xmlns="http://www.w3.org/2000/svg" preserveAspectRatio="none" width="182" height="96" viewBox="0 0 182 96">
  <rect x="2.91" y="7.5" width="176.17" height="81" rx="40" fill="#f5f5f5" />
  <path class="themed defaultFill-PositiveBright" d="M44.14 89.42h94.91c22.12 0 40.11-18.26 40.11-40.71 0-12.11-5.24-18.55-14.83-26.08l-.44 13.94c-5.35-10.22-15.82-22-24.84-30 12.06.2 27.73-1.38 38.58-5.29l-9.09 10.3C179.42 19.7 182 35.31 182 48.71c0 24-19.27 43.56-42.95 43.56zM43 3.73c-23.73 0-43 19.54-43 43.56 0 13.4 2.58 29 13.46 37.12l-9.09 10.3C15.22 90.8 30.89 89.22 43 89.42c-9-8-19.49-19.77-24.84-30l-.44 13.94C8.08 65.84 2.84 59.4 2.84 47.29c0-22.45 18-40.71 40.11-40.71h94.91z" fill="#52cc6e" />
</svg>