<svg xmlns="http://www.w3.org/2000/svg" width="24" height="24" viewBox="0 0 24 24">
  <defs>
    <style>
      .cls-1 {
        fill: #939393;
      }
    </style>
  </defs>
  <g id="_Layer_81" data-name="&lt;Layer&gt;">
    <g>
      <path class="cls-1" d="M4,12.44H19.88v1.08H4ZM8.8,16H20v1.08H8.8Zm0,3.52H20v1.08H8.8ZM4.12,16H7.44v1.08H4.12Zm1.66,3.52H7.44v1.08H5.78Z"/>
      <g>
        <path class="cls-1" d="M10,10.14H9.23L8.6,8.3H6.06l-.59,1.84H4.69L7,3.57h.73ZM8.37,7.61l-.94-2.8a3,3,0,0,1-.09-.44h0c0,.18-.06.33-.09.44L6.3,7.61Z"/>
        <path class="cls-1" d="M14.72,3.57l-2.21,6.57h-.78L9.57,3.57h.78L12,8.78a3.93,3.93,0,0,1,.12.58h0a2.94,2.94,0,0,1,.14-.59L14,3.57Z"/>
        <path class="cls-1" d="M15.27,9.87V9a1.72,1.72,0,0,0,.34.24A2,2,0,0,0,16,9.4a2.57,2.57,0,0,0,.85.16,1.45,1.45,0,0,0,1-.27.91.91,0,0,0,.32-.75.88.88,0,0,0-.11-.47,1.39,1.39,0,0,0-.29-.36,4.19,4.19,0,0,0-.44-.31l-.56-.31-.58-.35a2.31,2.31,0,0,1-.47-.4,1.66,1.66,0,0,1-.32-.49,1.75,1.75,0,0,1-.11-.64,1.66,1.66,0,0,1,.18-.78,1.64,1.64,0,0,1,.47-.54,2,2,0,0,1,.66-.32,2.87,2.87,0,0,1,.77-.11,2.75,2.75,0,0,1,1.28.23v.87a2.15,2.15,0,0,0-1.35-.4,1.75,1.75,0,0,0-.46,0,1.26,1.26,0,0,0-.41.17.86.86,0,0,0-.29.31.83.83,0,0,0-.12.46,1,1,0,0,0,.09.43,1.15,1.15,0,0,0,.25.34,2.91,2.91,0,0,0,.41.29l.55.31c.21.12.42.24.61.37a3,3,0,0,1,.5.42,2,2,0,0,1,.35.52,1.67,1.67,0,0,1,.12.65,1.72,1.72,0,0,1-.17.82,1.4,1.4,0,0,1-.47.55,1.86,1.86,0,0,1-.67.3,3.1,3.1,0,0,1-.81.1l-.35,0a3.49,3.49,0,0,1-.43-.07,2.77,2.77,0,0,1-.41-.12A1.27,1.27,0,0,1,15.27,9.87Z"/>
      </g>
      <path class="cls-1" d="M1.42,0l.06,24H22.42V0ZM21,22.42H2.89L2.84,1.66H21Z"/>
    </g>
  </g>
</svg>
