<svg xmlns="http://www.w3.org/2000/svg" width="32" height="32" viewBox="0 0 32 32"><path fill="#fff" d="M26.9 15v-.19a1.81 1.81 0 0 0 0-.23v-.11a6 6 0 0 0-.14-.74 11 11 0 0 0-.44-1.56 9.32 9.32 0 0 0-.42-1l-.23-.47c-.11-.19-.21-.38-.33-.55s-.13-.2-.2-.31a.13.13 0 0 1 0-.05 3.21 3.21 0 0 0-.21-.3l-.21-.26v-.05l-.23-.28a3.85 3.85 0 0 0-.27-.3 10.05 10.05 0 0 0-.73-.73l-.4-.35-.17-.14a2.11 2.11 0 0 0-.22-.17L22.21 7h-.07l-.37-.24h-.05l-.39-.23a3.58 3.58 0 0 0-.39-.21h-.06L20.44 6h-.08a2.87 2.87 0 0 0-.36-.2h-.1l-.36-.14-.12-.05-.36-.11h-.16l-.33-.1h-.18a1.83 1.83 0 0 0-.32-.07h-1.58A3.33 3.33 0 0 1 16 5h-.75a1.84 1.84 0 0 0-.33 0h-.53l-.3.05h-.22l-.31.07h-.19l-.32.1h-.16l-.34.11h-.13l-.36.14h-.11l-.37.53h-.08l-.39.18h-.07l-.39.21-.38.22-.44.39h-.08l-.33.24-.22.17-.2.12a4.25 4.25 0 0 0-.39.35 10.05 10.05 0 0 0-.73.73 8.5 8.5 0 0 0-.66.8v.05c0 .05-.22.25-.22.39a.13.13 0 0 1 0 .05c-.06.11-.14.2-.2.31s-.22.36-.33.56-.17.32-.23.47a9.85 9.85 0 0 0-.43 1 10.82 10.82 0 0 0-.43 1.56c-.08.36-.13.72-.18 1.08v1.08a10.94 10.94 0 0 0 21.88 0c-.14-.31-.15-.63-.18-.96zm-6.3-8a10.14 10.14 0 0 1 4.84 5.39c-.09.25-.19.49-.28.53s-.95 0-.61-.81-.95-1.2-1.28-1.11a2.46 2.46 0 0 1-3.13-.79c-1.34-1.55.3-3.1.46-3.21zM15 26c.2-.31.22-.81-.86-1.52-1.92-1.23-1.83-5.08.86-4.89s1.8-2.77-3.11-3.35a4.82 4.82 0 0 1-4.54-5.17 2.62 2.62 0 0 1 .1-.45 10.18 10.18 0 0 1 7.35-4.71c2.56.6 2.56 5.19 1.71 6.16S10 15 14.05 15.66s5.36 2.74 5.36 2.74c5.92-.1 4.16 3.94 1.81 6.2A10.09 10.09 0 0 1 16 26.06c-.34 0-.69-.06-1-.06z"/></svg>